<?xml version="1.0" standalone="no"?>
<!DOCTYPE svg PUBLIC "-//W3C//DTD SVG 20010904//EN"
 "http://www.w3.org/TR/2001/REC-SVG-20010904/DTD/svg10.dtd">
<svg version="1.0" xmlns="http://www.w3.org/2000/svg"
 width="32.000000pt" height="32.000000pt" viewBox="0 0 32.000000 32.000000"
 preserveAspectRatio="xMidYMid meet">

<g transform="translate(0.000000,32.000000) scale(0.100000,-0.100000)"
fill="#000000" stroke="none">
<path d="M85 297 c-47 -26 -85 -88 -85 -137 0 -77 82 -159 158 -160 119 0 199
134 140 235 -28 47 -89 85 -138 85 -19 0 -53 -10 -75 -23z m175 -77 c0 -18 -7
-20 -88 -20 -82 0 -112 8 -112 32 0 4 45 8 100 8 93 0 100 -1 100 -20z m-80
-105 c0 -48 -2 -55 -20 -55 -17 0 -20 7 -20 48 0 51 5 62 27 62 9 0 13 -16 13
-55z"/>
</g>
</svg>
